<?xml version="1.0" standalone="no"?>
<!DOCTYPE svg PUBLIC "-//W3C//DTD SVG 20010904//EN"
 "http://www.w3.org/TR/2001/REC-SVG-20010904/DTD/svg10.dtd">
<svg version="1.0" xmlns="http://www.w3.org/2000/svg"
 width="700.000000pt" height="700.000000pt" viewBox="0 0 700.000000 700.000000"
 preserveAspectRatio="xMidYMid meet">
<metadata>
Created by potrace 1.14, written by Peter Selinger 2001-2017
</metadata>
<g transform="translate(0.000000,700.000000) scale(0.100000,-0.100000)"
fill="#000000" stroke="none">
<path d="M3317 6574 c-1 -1 -67 -5 -147 -8 -80 -4 -161 -9 -180 -11 -19 -3
-62 -7 -95 -10 -56 -5 -81 -8 -180 -20 -22 -3 -62 -7 -90 -10 -58 -7 -104 -14
-125 -20 -8 -2 -35 -6 -60 -9 -25 -3 -56 -8 -70 -11 -14 -3 -70 -14 -125 -25
-431 -83 -861 -221 -1202 -387 -65 -31 -120 -60 -123 -64 -8 -11 -4 -3175 4
-3259 17 -176 51 -349 95 -476 17 -49 32 -93 33 -98 2 -5 24 -53 50 -107 222
-461 610 -791 1383 -1177 129 -64 173 -85 418 -196 28 -13 147 -65 262 -116
116 -50 234 -103 264 -116 29 -13 61 -24 71 -24 10 0 62 20 116 44 55 24 194
85 309 136 116 50 257 114 313 141 57 27 106 49 108 49 7 0 340 167 404 203
313 172 519 311 694 467 235 209 401 440 507 706 48 121 101 338 114 468 4 33
9 75 12 91 3 17 6 758 7 1649 l1 1619 -130 62 c-211 101 -366 163 -604 241
-121 39 -403 116 -474 128 -15 3 -35 7 -45 10 -19 6 -61 14 -112 21 -19 3 -55
10 -80 15 -25 5 -63 12 -85 15 -22 3 -67 10 -100 15 -33 5 -80 12 -105 15 -25
3 -61 7 -80 10 -19 2 -71 7 -115 11 -44 4 -93 8 -110 10 -129 12 -717 27 -728
18z m1938 -598 c99 -4 196 -9 215 -11 19 -2 78 -6 130 -9 84 -6 187 -15 230
-21 13 -2 15 -181 15 -1546 0 -849 -4 -1584 -7 -1634 -22 -283 -98 -526 -231
-740 -28 -44 -53 -82 -56 -85 -3 -3 -19 -23 -36 -45 -43 -58 -219 -232 -300
-297 -115 -91 -304 -217 -445 -296 -166 -94 -522 -274 -690 -350 -365 -165
-567 -254 -580 -254 -13 -1 -179 72 -495 216 -579 265 -905 447 -1205 671 -98
74 -297 279 -368 380 -132 187 -232 451 -258 677 -3 29 -8 64 -11 78 -3 14 -7
466 -8 1004 l-3 980 37 36 c45 46 242 208 341 280 41 30 77 57 80 60 10 11
259 170 350 223 93 54 345 183 445 228 282 125 731 268 1020 325 11 2 54 10
95 19 73 14 220 39 290 49 133 18 261 33 360 42 41 3 91 7 110 9 19 2 114 7
210 11 96 3 176 7 177 8 5 4 423 -2 588 -8z"/>
<path d="M3479 4596 c-2 -2 -31 -6 -64 -9 -124 -11 -267 -53 -387 -113 l-68
-34 0 -1465 0 -1465 60 0 c33 -1 94 -1 135 -1 41 0 116 0 165 1 l90 0 0 470
c0 371 3 470 13 470 6 0 28 -5 47 -10 39 -12 184 -14 245 -5 185 29 347 127
462 280 140 186 214 454 216 785 2 221 -9 326 -49 479 -88 339 -298 545 -619
606 -35 6 -241 16 -246 11z m156 -361 c80 -12 161 -79 209 -174 29 -57 63
-160 71 -216 3 -23 8 -52 11 -65 3 -14 7 -110 9 -215 4 -271 -17 -414 -85
-561 -67 -146 -166 -215 -300 -210 -36 2 -82 8 -102 15 l-38 13 0 689 0 690
38 16 c38 16 119 31 137 27 6 -2 28 -6 50 -9z"/>
<path d="M4990 4579 c-245 -51 -420 -207 -474 -421 -32 -132 -11 -320 51 -442
62 -122 145 -197 377 -342 195 -121 258 -194 272 -312 7 -66 -16 -147 -53
-187 -110 -121 -354 -101 -569 45 l-74 50 -1 -38 c-2 -172 2 -367 8 -373 21
-19 140 -72 212 -94 106 -31 138 -36 255 -40 203 -5 368 56 496 184 115 116
170 248 173 420 5 303 -102 472 -419 661 -202 120 -261 169 -295 243 -53 119
12 262 135 297 93 26 219 10 326 -40 59 -27 76 -38 131 -82 26 -21 49 -38 51
-38 2 0 3 86 3 192 l0 192 -52 33 c-152 97 -363 132 -553 92z"/>
<path d="M1450 4552 l-66 -3 2 -772 c0 -425 4 -790 8 -812 51 -283 196 -455
441 -521 69 -19 291 -27 375 -14 183 28 338 74 455 136 l60 32 0 977 0 977
-190 0 c-104 -1 -204 -1 -221 -1 l-31 -1 -1 -827 c0 -456 -1 -838 -1 -849 -2
-36 -105 -68 -218 -68 -51 0 -70 6 -110 30 -56 35 -97 101 -110 179 -5 27 -9
384 -8 793 l0 742 -60 1 c-33 0 -105 1 -160 2 -55 1 -129 1 -165 -1z"/>
</g>
</svg>
